<?xml version="1.0" encoding="UTF-8" standalone="no"?>
<!-- Created with Inkscape (http://www.inkscape.org/) -->

<svg
   xmlns:dc="http://purl.org/dc/elements/1.1/"
   xmlns:cc="http://creativecommons.org/ns#"
   xmlns:rdf="http://www.w3.org/1999/02/22-rdf-syntax-ns#"
   xmlns:svg="http://www.w3.org/2000/svg"
   xmlns="http://www.w3.org/2000/svg"
   xmlns:sodipodi="http://sodipodi.sourceforge.net/DTD/sodipodi-0.dtd"
   xmlns:inkscape="http://www.inkscape.org/namespaces/inkscape"
   width="420"
   height="420"
   viewBox="0 0 111.125 111.125"
   version="1.1"
   id="svg8"
   inkscape:version="0.92.4 (unknown)"
   sodipodi:docname="logo.svg"
   inkscape:export-filename="/home/nkl/Work/postblog/postblog/assets/web_icon192.png"
   inkscape:export-xdpi="43.885715"
   inkscape:export-ydpi="43.885715">
  <defs
     id="defs2" />
  <sodipodi:namedview
     id="base"
     pagecolor="#ffffff"
     bordercolor="#666666"
     borderopacity="1.0"
     inkscape:pageopacity="0.0"
     inkscape:pageshadow="2"
     inkscape:zoom="1.9642857"
     inkscape:cx="213.68495"
     inkscape:cy="178.71235"
     inkscape:document-units="px"
     inkscape:current-layer="layer1"
     showgrid="false"
     units="px"
     inkscape:window-width="1920"
     inkscape:window-height="1016"
     inkscape:window-x="0"
     inkscape:window-y="27"
     inkscape:window-maximized="1"
     inkscape:snap-intersection-paths="true"
     inkscape:object-paths="true"
     inkscape:snap-smooth-nodes="true"
     inkscape:snap-midpoints="true"
     inkscape:snap-center="true"
     inkscape:snap-bbox="true"
     inkscape:bbox-paths="true"
     inkscape:bbox-nodes="true"
     inkscape:snap-bbox-midpoints="true"
     inkscape:snap-bbox-edge-midpoints="true"
     inkscape:snap-object-midpoints="true"
     inkscape:snap-text-baseline="true"
     inkscape:object-nodes="true"
     inkscape:snap-nodes="true"
     inkscape:snap-page="true">
    <inkscape:grid
       type="xygrid"
       id="grid3880" />
  </sodipodi:namedview>
  <metadata
     id="metadata5">
    <rdf:RDF>
      <cc:Work
         rdf:about="">
        <dc:format>image/svg+xml</dc:format>
        <dc:type
           rdf:resource="http://purl.org/dc/dcmitype/StillImage" />
        <dc:title></dc:title>
      </cc:Work>
    </rdf:RDF>
  </metadata>
  <g
     inkscape:label="Layer 1"
     inkscape:groupmode="layer"
     id="layer1"
     transform="translate(0,-185.87499)">
    <circle
       style="fill:#633fea;fill-opacity:1;stroke:none;stroke-width:0.19843748"
       id="path4029"
       cx="55.5625"
       cy="241.43748"
       r="41.671875" />
    <path
       style="fill:#4a2faf;fill-opacity:1;stroke:#4a2faf;stroke-width:1.05833328;stroke-linecap:round;stroke-linejoin:round;stroke-miterlimit:4;stroke-dasharray:none;stroke-opacity:1"
       d="m 55.562499,231.92404 -4.998047,15.25312 4.803792,2.85483 -1.361713,-4.17226 z"
       id="path5006"
       inkscape:connector-curvature="0"
       sodipodi:nodetypes="ccccc" />
    <g
       id="g5019">
      <path
         sodipodi:nodetypes="ccccccccccccc"
         inkscape:connector-curvature="0"
         id="path4988"
         d="m 78.523473,228.37987 c -2.322199,-9.7e-4 -4.800122,0.0849 -6.874924,1.1279 -1.401996,0.70475 -2.601932,1.91239 -3.38266,3.27356 -0.838387,1.46167 -1.202092,3.22555 -1.200625,4.91058 0.0016,1.67329 0.366851,3.4235 1.200625,4.87423 0.781898,1.36048 1.982482,2.5652 3.38266,3.27356 2.073894,1.04915 4.550734,1.16472 6.874924,1.16375 2.312231,-9.8e-4 4.772496,-0.12456 6.838051,-1.16375 1.409551,-0.70915 2.629129,-1.90761 3.419029,-3.27356 0.837648,-1.44849 1.198769,-3.20094 1.200626,-4.87423 0.002,-1.68503 -0.358326,-3.45115 -1.200626,-4.91058 -0.788717,-1.36663 -2.00764,-2.56806 -3.419029,-3.27356 -2.066447,-1.03308 -4.527819,-1.12692 -6.838051,-1.1279 z"
         style="fill:#4a2faf;fill-opacity:1;stroke-width:0.11366968" />
      <path
         style="fill:#ffffff;fill-opacity:1;stroke-width:0.11366968"
         d="m 79.581807,227.32153 c -2.322199,-9.7e-4 -4.800122,0.0849 -6.874924,1.1279 -1.401996,0.70475 -2.601932,1.91239 -3.38266,3.27356 -0.838387,1.46167 -1.202092,3.22555 -1.200625,4.91058 0.0016,1.67329 0.366851,3.4235 1.200625,4.87423 0.781898,1.36048 1.982482,2.5652 3.38266,3.27356 2.073894,1.04915 4.550734,1.16472 6.874924,1.16375 2.312231,-9.8e-4 4.772496,-0.12456 6.838051,-1.16375 1.409551,-0.70915 2.629129,-1.90761 3.419029,-3.27356 0.837648,-1.44849 1.198769,-3.20094 1.200626,-4.87423 0.002,-1.68503 -0.358326,-3.45115 -1.200626,-4.91058 -0.788717,-1.36663 -2.00764,-2.56806 -3.419029,-3.27356 -2.066447,-1.03308 -4.527819,-1.12692 -6.838051,-1.1279 z"
         id="path4960"
         inkscape:connector-curvature="0"
         sodipodi:nodetypes="ccccccccccccc" />
      <path
         inkscape:connector-curvature="0"
         id="path3902"
         d="m 82.611737,229.68028 c -2.244455,-0.074 -4.450357,0.96266 -5.823814,2.73928 -1.535217,1.80444 -1.65234,4.45567 -0.95034,6.63129 1.019372,3.04671 4.367882,4.8438 7.483049,4.53208 2.192151,-0.11498 4.5564,-0.79278 5.877189,-2.67932 2.401678,-2.96477 1.777604,-7.97575 -1.528185,-10.01586 -1.499676,-0.94411 -3.314438,-1.21527 -5.057899,-1.20747 z"
         style="fill:#000000;fill-opacity:1;stroke-width:0.1162945" />
      <path
         inkscape:connector-curvature="0"
         id="path3845-6"
         style="font-style:normal;font-variant:normal;font-weight:normal;font-stretch:normal;font-size:10.58333302px;line-height:1.25;font-family:'Varela Round';-inkscape-font-specification:'Varela Round';letter-spacing:0px;word-spacing:0px;fill:#000000;fill-opacity:1;stroke:none;stroke-width:0.93035603"
         d="m 67.859083,236.63332 c -0.0015,-1.72394 0.370323,-3.5285 1.22807,-5.02392 0.798757,-1.3926 2.026556,-2.62826 3.460925,-3.34928 2.122713,-1.06706 4.65766,-1.15465 7.033484,-1.15363 2.363577,0.001 4.882107,0.0967 6.996276,1.15363 1.443978,0.72179 2.691187,1.95109 3.49812,3.34928 0.861745,1.49313 1.229561,3.29998 1.22807,5.02392 -0.0019,1.71192 -0.371079,3.50478 -1.22807,4.98672 -0.808135,1.39749 -2.05602,2.62377 -3.49812,3.34929 -2.113255,1.06319 -4.630652,1.18981 -6.996276,1.19083 -2.37786,0.001 -4.911699,-0.11745 -7.033484,-1.19083 -1.432508,-0.72472 -2.660969,-1.95739 -3.460925,-3.34929 -0.853028,-1.48423 -1.2266,-3.2748 -1.22807,-4.98672 z m 3.088759,0 c 0.0028,0.99586 0.226169,2.03067 0.707094,2.90271 0.516841,0.93721 1.284208,1.81178 2.232854,2.3073 1.715409,0.89602 3.795642,0.93133 5.730968,0.93034 1.9231,-0.001 3.993452,-0.0316 5.693807,-0.93034 0.938699,-0.49598 1.686836,-1.37547 2.19561,-2.3073 0.477247,-0.87404 0.704235,-1.90685 0.707101,-2.90271 0.0028,-1.01997 -0.217237,-2.08249 -0.707101,-2.97715 -0.505581,-0.92334 -1.261292,-1.78502 -2.19561,-2.27006 -1.705081,-0.88515 -3.772659,-0.89219 -5.693807,-0.89314 -1.933381,-9.5e-4 -4.010857,0.0105 -5.730968,0.89314 -0.944304,0.48459 -1.719199,1.34126 -2.232854,2.27006 -0.493623,0.89258 -0.71003,1.95718 -0.707094,2.97715 z"
         sodipodi:nodetypes="aaaaaaaaaaaaaaaaaaaaaaaaaa" />
    </g>
    <g
       id="g5025">
      <path
         style="fill:#4a2faf;fill-opacity:1;stroke-width:0.11366968"
         d="m 30.524088,228.37987 c -2.322199,-9.7e-4 -4.800122,0.0849 -6.874924,1.1279 -1.401995,0.70475 -2.601932,1.91239 -3.38266,3.27356 -0.838387,1.46167 -1.202091,3.22555 -1.200625,4.91058 0.0016,1.67329 0.366851,3.4235 1.200625,4.87423 0.781899,1.36048 1.982483,2.5652 3.38266,3.27356 2.073894,1.04915 4.550734,1.16472 6.874924,1.16375 2.312231,-9.8e-4 4.772496,-0.12456 6.838055,-1.16375 1.409549,-0.70915 2.62913,-1.90761 3.419025,-3.27356 0.837649,-1.44849 1.198769,-3.20094 1.200626,-4.87423 0.0016,-1.68503 -0.35833,-3.45115 -1.200626,-4.91058 -0.788721,-1.36663 -2.00764,-2.56806 -3.419025,-3.27356 -2.066451,-1.03308 -4.527823,-1.12692 -6.838055,-1.1279 z"
         id="path4992"
         inkscape:connector-curvature="0"
         sodipodi:nodetypes="ccccccccccccc" />
      <path
         sodipodi:nodetypes="ccccccccccccc"
         inkscape:connector-curvature="0"
         id="path4949"
         d="m 31.582422,227.32153 c -2.322199,-9.7e-4 -4.800122,0.0849 -6.874924,1.1279 -1.401995,0.70475 -2.601932,1.91239 -3.38266,3.27356 -0.838387,1.46167 -1.202091,3.22555 -1.200625,4.91058 0.0016,1.67329 0.366851,3.4235 1.200625,4.87423 0.781899,1.36048 1.982483,2.5652 3.38266,3.27356 2.073894,1.04915 4.550734,1.16472 6.874924,1.16375 2.312231,-9.8e-4 4.772496,-0.12456 6.838055,-1.16375 1.409549,-0.70915 2.62913,-1.90761 3.419025,-3.27356 0.837649,-1.44849 1.198769,-3.20094 1.200626,-4.87423 0.0016,-1.68503 -0.35833,-3.45115 -1.200626,-4.91058 -0.788721,-1.36663 -2.00764,-2.56806 -3.419025,-3.27356 -2.066451,-1.03308 -4.527823,-1.12692 -6.838055,-1.1279 z"
         style="fill:#ffffff;fill-opacity:1;stroke-width:0.11366968" />
      <path
         inkscape:connector-curvature="0"
         id="path3904"
         d="m 34.474751,229.69424 c -2.601007,-0.0503 -5.161506,1.40204 -6.3461,3.73645 -0.85561,1.63679 -0.851349,3.62626 -0.400117,5.37951 0.975235,3.05402 4.234431,5.06877 7.39901,4.76102 2.443673,0.0336 5.041264,-0.93198 6.379851,-3.07657 2.028763,-2.98703 1.307439,-7.53362 -1.743515,-9.56045 -1.534222,-1.0612 -3.47554,-1.24959 -5.289129,-1.23996 z"
         style="fill:#000000;fill-opacity:1;stroke-width:0.1162945" />
      <path
         sodipodi:nodetypes="aaaaaaaaaaaaaaaaaaaaaaaaaa"
         d="m 19.85963,236.63332 c -0.0015,-1.72394 0.370327,-3.5285 1.22807,-5.02392 0.798757,-1.3926 2.026556,-2.62826 3.460924,-3.34928 2.122717,-1.06706 4.657661,-1.15465 7.033482,-1.15363 2.363584,0.001 4.882113,0.0967 6.996279,1.15363 1.443978,0.72179 2.691187,1.95109 3.498127,3.34928 0.861734,1.49313 1.229554,3.29998 1.22807,5.02392 -0.0015,1.71192 -0.371083,3.50478 -1.22807,4.98672 -0.808142,1.39749 -2.056023,2.62377 -3.498127,3.34929 -2.113255,1.06319 -4.630645,1.18981 -6.996279,1.19083 -2.37786,0.001 -4.911697,-0.11745 -7.033482,-1.19083 -1.432508,-0.72472 -2.660968,-1.95739 -3.460924,-3.34929 -0.853028,-1.48423 -1.226597,-3.2748 -1.22807,-4.98672 z m 3.088759,0 c 0.0028,0.99586 0.226168,2.03067 0.707094,2.90271 0.51684,0.93721 1.284208,1.81178 2.232854,2.3073 1.715409,0.89602 3.795638,0.93133 5.730971,0.93034 1.923103,-0.001 3.993452,-0.0316 5.693804,-0.93034 0.938699,-0.49598 1.686836,-1.37547 2.195617,-2.3073 0.477244,-0.87404 0.704228,-1.90685 0.707094,-2.90271 0.003,-1.01997 -0.217237,-2.08249 -0.707094,-2.97715 -0.505585,-0.92334 -1.261296,-1.78502 -2.195617,-2.27006 -1.705081,-0.88515 -3.772663,-0.89219 -5.693804,-0.89314 -1.933381,-9.5e-4 -4.01086,0.0105 -5.730971,0.89314 -0.9443,0.48459 -1.719199,1.34126 -2.232854,2.27006 -0.493623,0.89258 -0.710031,1.95718 -0.707094,2.97715 z"
         style="font-style:normal;font-variant:normal;font-weight:normal;font-stretch:normal;font-size:10.58333302px;line-height:1.25;font-family:'Varela Round';-inkscape-font-specification:'Varela Round';letter-spacing:0px;word-spacing:0px;fill:#000000;fill-opacity:1;stroke:none;stroke-width:0.93035603"
         id="path3822-2"
         inkscape:connector-curvature="0" />
    </g>
    <g
       id="g5013"
       transform="translate(0,4.7625002)">
      <path
         inkscape:connector-curvature="0"
         id="path4994"
         style="font-style:normal;font-variant:normal;font-weight:normal;font-stretch:normal;font-size:10.58333302px;line-height:1.25;font-family:'Varela Round';-inkscape-font-specification:'Varela Round';letter-spacing:0px;word-spacing:0px;fill:#4a2faf;fill-opacity:1;stroke:none;stroke-width:0.93035603"
         d="m 40.89902,252.9612 c 0.214213,-0.37104 0.607758,-0.92437 1.014409,-0.78941 8.88861,2.94962 16.331467,2.94962 25.167165,-0.0404 0.41043,-0.13889 0.823051,0.39963 1.046625,0.77077 0.227012,0.37688 0.308942,0.88045 0.195084,1.30543 -0.113858,0.42498 -0.425504,0.84156 -0.821637,1.03302 -7.805248,3.77247 -18.267367,3.94519 -26.007292,0.0404 -0.386836,-0.19515 -0.664205,-0.62668 -0.770785,-1.04663 -0.105383,-0.41527 -0.0378,-0.90214 0.176449,-1.27318 z"
         sodipodi:nodetypes="cssssssaac" />
      <path
         sodipodi:nodetypes="cssssssaac"
         d="m 41.957354,251.90286 c 0.214213,-0.37104 0.607758,-0.92437 1.014409,-0.78941 8.88861,2.94962 16.331467,2.94962 25.167165,-0.0404 0.41043,-0.13889 0.823051,0.39963 1.046625,0.77077 0.227012,0.37688 0.308942,0.88045 0.195084,1.30543 -0.113858,0.42498 -0.425504,0.84156 -0.821637,1.03302 -7.805248,3.77247 -18.267367,3.94519 -26.007292,0.0404 -0.386836,-0.19515 -0.664205,-0.62668 -0.770785,-1.04663 -0.105383,-0.41527 -0.0378,-0.90214 0.176449,-1.27318 z"
         style="font-style:normal;font-variant:normal;font-weight:normal;font-stretch:normal;font-size:10.58333302px;line-height:1.25;font-family:'Varela Round';-inkscape-font-specification:'Varela Round';letter-spacing:0px;word-spacing:0px;fill:#000000;fill-opacity:1;stroke:none;stroke-width:0.93035603"
         id="path3830-5"
         inkscape:connector-curvature="0" />
    </g>
  </g>
</svg>
